<svg xmlns="http://www.w3.org/2000/svg" viewBox="0 0 311.95 67.39"><defs><style>.cls-1{fill:#231f20;}</style></defs><title>vehikl_logo-text</title><g id="Layer_2" data-name="Layer 2"><g id="LOGO"><g id="Layer_4" data-name="Layer 4"><polygon id="V" class="cls-1" points="0 0 19.78 0 35.27 46.52 51.3 0 70.4 0 42.7 67.39 28.58 67.39 0 0"/><polygon id="E" class="cls-1" points="112.54 0 71.2 0 71.2 67.39 112.54 67.39 112.54 52.58 88.91 52.58 88.91 40.71 112.54 40.71 112.54 26.87 88.82 26.87 88.82 14.74 112.54 14.74 112.54 0"/><polygon id="H" class="cls-1" points="117.66 0 135.82 0 135.82 25.98 160.71 25.98 160.71 0 179.22 0 179.22 67.39 161.07 67.39 161.07 39.99 135.82 39.99 135.82 67.39 117.66 67.39 117.66 0"/><rect id="I" class="cls-1" x="184.7" width="18.69" height="67.39"/><polygon id="K" class="cls-1" points="208.69 0 226.94 0 226.94 30.2 248.15 0 269.17 0 244.73 32.8 270.16 67.39 247.25 67.39 226.76 37.3 226.76 67.39 208.69 67.39 208.69 0"/><polygon id="L" class="cls-1" points="270.16 0 288.76 0 288.76 51.5 311.95 51.5 311.95 67.39 270.16 67.39 270.16 0"/></g></g></g></svg>