<svg xmlns="http://www.w3.org/2000/svg" viewBox="0 0 92.35 158.46"><defs><style>.cls-1{fill:#d56e28;}</style></defs><title>vehikl_logo-git-symbol</title><g id="Layer_2" data-name="Layer 2"><g id="LOGO"><g id="Layer_3" data-name="Layer 3"><path id="logo-inner" class="cls-1" d="M76.49,17.18c-11.2-.09-16.54,8-16.62,18.44C59.8,45.05,65,49.34,68.1,51.35c.61,2.79.57,14.43-6.72,20.76-9.77,8.48-30.47,13.24-33.3,16.36v-51c5.72-3.86,9-8.25,8.86-17.26C36.76,10.83,30.61,0,17.33,0,3.4,0,0,13.16,0,18.29c0,3.86.27,11.92,9.51,18.22.06,0,.49,84.62.49,84.62A21.31,21.31,0,0,0,0,140.32c.52,11.4,9,18.14,17.26,18.14,10.3,0,19.17-7.42,19.54-19.91s-7.77-17.46-8.87-18c-.06-.06-.75-7.69,3.1-11.54S52,98.62,53.36,98.1s13.85-5.54,22.2-16c6.18-7.72,8.43-18,8.76-29.62,2.71-1.86,8-6.12,8-15.7C92.34,28.32,86.57,17.25,76.49,17.18ZM18.24,148c-5.68,0-8.44-4.13-8.44-9.21,0-5.8,3.84-10.33,9.32-10.33s9,5,8.73,10.65A9.53,9.53,0,0,1,18.24,148Zm.88-118.63c-6.23,0-9.26-4.72-9.26-10,0-5.9,3.48-9.52,9.26-9.52C24,9.84,28,14.73,28,19.4,28,24.65,25.61,29.38,19.12,29.38ZM76.46,44.7c-4.36,0-8.2-4.8-8.2-8.9,0-4.73,3.16-9.3,8.22-9.3,5.43,0,7.94,5.67,7.74,9.47C84,40.94,81.44,44.7,76.46,44.7Z"/></g></g></g></svg>